<svg width="40" height="40" viewBox="0 0 40 40" fill="none" xmlns="http://www.w3.org/2000/svg">
<path d="M20 9C13.9249 9 9 13.9249 9 20C9 24.6601 11.8994 28.6439 15.9913 30.2466C15.8952 29.3763 15.8082 28.0378 16.0294 27.0877C16.2293 26.2292 17.3193 21.62 17.3193 21.62C17.3193 21.62 16.9903 20.9611 16.9903 19.9869C16.9903 18.4573 17.8768 17.3154 18.9807 17.3154C19.9192 17.3154 20.3724 18.02 20.3724 18.8649C20.3724 19.8087 19.7716 21.2198 19.4615 22.5274C19.2023 23.6222 20.0105 24.5151 21.0904 24.5151C23.0454 24.5151 24.5483 22.4536 24.5483 19.478C24.5483 16.8442 22.6558 15.0028 19.9535 15.0028C16.8236 15.0028 14.9865 17.3503 14.9865 19.7764C14.9865 20.7219 15.3507 21.7356 15.8052 22.2867C15.8951 22.3957 15.9082 22.4911 15.8815 22.6022C15.798 22.9497 15.6124 23.6968 15.576 23.8497C15.528 24.0511 15.4166 24.0938 15.2081 23.9968C13.8343 23.3573 12.9753 21.3487 12.9753 19.7354C12.9753 16.2655 15.4964 13.0788 20.2434 13.0788C24.0593 13.0788 27.0247 15.798 27.0247 19.4319C27.0247 23.2229 24.6344 26.2739 21.3167 26.2739C20.202 26.2739 19.1542 25.6948 18.7955 25.0108C18.7955 25.0108 18.2439 27.111 18.1102 27.6257C17.8619 28.5811 17.1914 29.7787 16.743 30.5094C17.7722 30.828 18.866 30.9999 20 30.9999C26.0751 30.9999 31 26.075 31 20C31 13.9249 26.0751 9 20 9Z" fill="#BDBDBD"/>
</svg>
